<?xml version="1.0" encoding="UTF-8"?>
<svg xmlns="http://www.w3.org/2000/svg" xmlns:xlink="http://www.w3.org/1999/xlink" width="566.929134" height="850.393701" viewBox="0 0 566.929134 850.393701">
<path fill-rule="nonzero" fill="rgb(100%, 100%, 100%)" fill-opacity="1" d="M 298.503906 594.359375 C 297.414062 628.59375 248.621094 652.972656 213.644531 657.664062 C 195.484375 660.097656 169.507812 654.496094 162.484375 637.574219 C 153.078125 614.910156 171.738281 584.15625 191.820312 570.054688 C 216.773438 552.535156 266.398438 541.320312 283.101562 564.25 C 289.65625 502.21875 285.375 293.933594 283.953125 192.1875 C 305.703125 272.722656 386.882812 326.449219 405.257812 434.910156 C 413.375 513.875 389.691406 545.089844 389.691406 545.089844 C 389.691406 545.089844 397.535156 467.804688 383.703125 419.339844 C 354.054688 315.496094 301.066406 317.546875 301.066406 317.546875 C 301.066406 317.546875 302.132812 480.480469 298.503906 594.359375 Z M 298.503906 594.359375 "/>
</svg>
