<?xml version="1.0" encoding="UTF-8"?>
<svg xmlns="http://www.w3.org/2000/svg" xmlns:xlink="http://www.w3.org/1999/xlink" width="566.929134" height="850.393701" viewBox="0 0 566.929134 850.393701">
<path fill-rule="nonzero" fill="rgb(100%, 100%, 100%)" fill-opacity="1" d="M 177.894531 262.503906 L 466.464844 202.820312 C 466.464844 202.820312 466.894531 454.597656 467.191406 545.871094 C 458.796875 578.085938 434.1875 599.539062 406.472656 607.574219 C 383.960938 614.097656 346.851562 613.304688 338 591.601562 C 326.847656 564.261719 357.503906 526.015625 385.585938 516.882812 C 417.214844 506.597656 434.320312 514.121094 452.90625 522.296875 C 454.125 436.1875 453.929688 257.738281 453.929688 257.738281 L 190.855469 316.636719 C 190.855469 316.636719 190.890625 499.453125 189.550781 599.996094 C 184.3125 630.4375 164.300781 653.011719 139.355469 662.835938 C 114.085938 672.78125 68.117188 671.378906 58.757812 650.933594 C 46.519531 624.1875 76.9375 592.417969 101.582031 579.867188 C 125.410156 567.730469 151.542969 569.054688 181.511719 586.785156 C 180.117188 516.582031 177.894531 262.503906 177.894531 262.503906 Z M 177.894531 262.503906 "/>
</svg>
