<?xml version="1.0" encoding="UTF-8"?>
<svg xmlns="http://www.w3.org/2000/svg" xmlns:xlink="http://www.w3.org/1999/xlink" width="566.929134" height="850.393701" viewBox="0 0 566.929134 850.393701">
<path fill-rule="nonzero" fill="rgb(100%, 100%, 100%)" fill-opacity="1" d="M 168.214844 315.246094 C 190.246094 239.875 220.613281 218.824219 283.785156 222.71875 C 354.074219 227.054688 393.660156 278.980469 365.992188 413.621094 C 340.800781 536.214844 269.65625 583.730469 130.394531 705.96875 C 271.320312 661.777344 319.472656 614.878906 398.667969 525.402344 C 470.660156 444.058594 491.292969 317.65625 422.742188 248.527344 C 363.390625 188.671875 243.851562 176.96875 172.003906 246.445312 C 135.175781 282.0625 129.472656 336.628906 156.1875 367.1875 C 174.375 387.988281 224.753906 391.125 239.070312 367.5 C 270.90625 314.964844 213.296875 273.128906 168.214844 315.246094 Z M 168.214844 315.246094 "/>
<path fill-rule="nonzero" fill="rgb(100%, 100%, 100%)" fill-opacity="1" d="M 554.359375 266.71875 C 554.359375 285.765625 538.917969 301.207031 519.871094 301.207031 C 500.824219 301.207031 485.382812 285.765625 485.382812 266.71875 C 485.382812 247.671875 500.824219 232.230469 519.871094 232.230469 C 538.917969 232.230469 554.359375 247.671875 554.359375 266.71875 Z M 554.359375 266.71875 "/>
<path fill-rule="nonzero" fill="rgb(100%, 100%, 100%)" fill-opacity="1" d="M 555.589844 421.019531 C 555.589844 440.066406 540.148438 455.507812 521.101562 455.507812 C 502.054688 455.507812 486.613281 440.066406 486.613281 421.019531 C 486.613281 401.972656 502.054688 386.53125 521.101562 386.53125 C 540.148438 386.53125 555.589844 401.972656 555.589844 421.019531 Z M 555.589844 421.019531 "/>
</svg>
