<?xml version="1.0" encoding="UTF-8"?>
<svg xmlns="http://www.w3.org/2000/svg" xmlns:xlink="http://www.w3.org/1999/xlink" width="393.967564" height="334.31948" viewBox="0 0 393.967564 334.31948">
<path fill-rule="nonzero" fill="rgb(93.333334%, 93.333334%, 93.725491%)" fill-opacity="1" d="M 69.492188 0 L 324.476562 0 C 342.90625 0 360.582031 6.589844 373.613281 18.320312 C 386.644531 30.054688 393.96875 45.964844 393.96875 62.554688 L 393.96875 271.765625 C 393.96875 306.3125 362.855469 334.320312 324.476562 334.320312 L 69.492188 334.320312 C 31.113281 334.320312 0 306.3125 0 271.765625 L 0 62.554688 C 0 45.964844 7.320312 30.054688 20.355469 18.320312 C 33.386719 6.589844 51.0625 0 69.492188 0 Z M 69.492188 0 "/>
<path fill="none" stroke-width="6.799996" stroke-linecap="butt" stroke-linejoin="miter" stroke="rgb(0%, 0%, 0%)" stroke-opacity="1" stroke-miterlimit="4" d="M 27.372566 5.610445 L 112.626457 5.610445 C 123.878787 5.610445 133.000366 14.732711 133.000366 25.983713 L 133.000366 104.016614 C 133.000366 115.267616 123.878787 124.388325 112.626457 124.388325 L 27.372566 124.388325 C 16.121637 124.388325 7.000058 115.267616 7.000058 104.016614 L 7.000058 25.983713 C 7.000058 14.732711 16.121637 5.610445 27.372566 5.610445 Z M 27.372566 5.610445 " transform="matrix(2.786576, 0, 0, 2.508457, 1.923497, 4.110034)"/>
</svg>
