<?xml version="1.0" encoding="UTF-8"?>
<svg xmlns="http://www.w3.org/2000/svg" xmlns:xlink="http://www.w3.org/1999/xlink" width="566.929134" height="850.393701" viewBox="0 0 566.929134 850.393701">
<path fill-rule="nonzero" fill="rgb(100%, 100%, 100%)" fill-opacity="1" d="M 409.898438 63.84375 C 438.605469 129.023438 362.1875 214.707031 264.917969 299.726562 C 172.699219 391.570312 134.585938 412.992188 128.671875 517.042969 C 134.28125 641.484375 253.550781 684.945312 307.453125 677.0625 C 368.742188 670.65625 427.601562 640.878906 438.257812 543.386719 C 428.234375 469.527344 404.253906 411.3125 309.804688 418.246094 C 256.949219 437.257812 239.476562 448.335938 225.425781 499.140625 C 219.410156 532.378906 227.582031 580.152344 277.566406 604.757812 C 254.066406 556.554688 242.980469 527.378906 260.90625 492.886719 C 289.234375 472.03125 305.894531 456.304688 359.363281 475.214844 C 398.734375 502.117188 400.304688 567.046875 390.3125 596.046875 C 380.324219 625.042969 337.265625 671.195312 257.800781 654.507812 C 204.871094 639.1875 178.589844 571.820312 182.808594 513.363281 C 199.996094 413.164062 251.882812 397.574219 285.597656 360.777344 C 403.515625 257.5 401.410156 233.5 422.492188 178.332031 C 444.933594 85.742188 409.175781 21.84375 400.367188 3.101562 C 366.289062 2.058594 290.816406 106.601562 290.679688 195.878906 C 276.074219 370.316406 313.699219 483.417969 311.304688 768.066406 C 293.914062 827.429688 248.578125 843.832031 219.167969 816.886719 C 250.953125 782.351562 266.945312 761.953125 205.351562 728.175781 C 152.929688 729.828125 143.085938 771.710938 161.632812 805.003906 C 178.203125 835.398438 268.253906 892.410156 323.03125 783.519531 C 329.4375 469.140625 289.15625 285.074219 312.804688 181.765625 C 321.5625 126.484375 370.636719 69.632812 409.898438 63.84375 Z M 409.898438 63.84375 "/>
</svg>
